# xmcd
#
# Track frame offsets:
# 150
# 14715
# 29126
# 43900
# 58886
# 73904
# 87879
# 104317
# 116563
# 133608
# 152868
# 165705
# 182733
# 198796
# 217499
#
# Disc length: 3146 seconds
#
#
# Revision: 5
# Processed by: cddbd v1.5.2PL0 Copyright (c) Steve Scherf et al.
# Submitted via: FreeRIP 2.91 
#
DISCID=ea0c480f
DTITLE=Calcinha Preta - Vol 15
DYEAR=2006
DGENRE=Forro
TTITLE0=Se Quiser E Assim - Ao Vivo
TTITLE1=Campeao De Bilheteria
TTITLE2=Pensao Alimenticia
TTITLE3=Bebo E Choro
TTITLE4=Codigo Das Vinte
TTITLE5=Romeu E Julieta
TTITLE6=Te Amo Demais
TTITLE7=Faltou Coragem
TTITLE8=Tanto Amor Que Eu Te Dei
TTITLE9=Porque Tocou Meu Coraçao
TTITLE10=Vem Me Deixa Louca
TTITLE11=Armadilha
TTITLE12=A Encrusilhada
TTITLE13=O Que Vou Fazer
TTITLE14=Adao E Eva
EXTD=YEAR: 2006
EXTT0=
EXTT1=
EXTT2=
EXTT3=
EXTT4=
EXTT5=
EXTT6=
EXTT7=
EXTT8=
EXTT9=
EXTT10=
EXTT11=
EXTT12=
EXTT13=
EXTT14=
PLAYORDER=
